<svg xmlns="http://www.w3.org/2000/svg" viewBox="0 0 256 256">
  <defs>
    <linearGradient id="jira-blue-1" x1="0%" y1="0%" x2="100%" y2="100%">
      <stop offset="0%" stop-color="#2684FF" />
      <stop offset="100%" stop-color="#0052CC" />
    </linearGradient>
  </defs>
  <g>
    <!-- Top arrow -->
    <path d="M122.06 0c0 33.24 27.1 60.34 60.34 60.34h31.14c0-33.24-27.1-60.34-60.33-60.34h-31.15z" fill="#2684FF"/>
    <!-- Middle arrow -->
    <path d="M122.06 97.54c0-33.24 27.1-60.34 60.34-60.34H73.6c-33.24 0-60.33 27.1-60.33 60.34 0 33.23 27.1 60.33 60.33 60.33h108.8c-33.24 0-60.34-27.1-60.34-60.33z" fill="url(#jira-blue-1)"/>
    <!-- Bottom arrow -->
    <path d="M182.4 158.46c-33.24 0-60.34 27.1-60.34 60.34 0 33.23 27.1 60.33 60.34 60.33h31.14c0-33.23-27.1-60.33-60.33-60.33h-31.15c0-33.24 27.1-60.34 60.34-60.34z" fill="#2684FF"/>
  </g>
</svg>
