<?xml version="1.0" encoding="UTF-8"?>
<svg width="256px" height="256px" viewBox="0 0 256 256" version="1.1" xmlns="http://www.w3.org/2000/svg" preserveAspectRatio="xMidYMid">
    <g>
        <path d="M53.8408867,161.520794 C53.8408867,176.326107 41.8252755,188.341536 27.0116454,188.341536 C12.1980153,188.341536 0.182404099,176.326107 0.182404099,161.520794 C0.182404099,146.715481 12.1980153,134.699869 27.0116454,134.699869 L53.8408867,134.699869 L53.8408867,161.520794 Z M67.0989425,161.520794 C67.0989425,146.715481 79.1145538,134.699869 93.9281839,134.699869 C108.741814,134.699869 120.757425,146.715481 120.757425,161.520794 L120.757425,228.349716 C120.757425,243.155029 108.741814,255.170458 93.9281839,255.170458 C79.1145538,255.170458 67.0989425,243.155029 67.0989425,228.349716 L67.0989425,161.520794 Z M93.9281839,53.8408867 C79.1145538,53.8408867 67.0989425,41.8252755 67.0989425,27.0116454 C67.0989425,12.1980153 79.1145538,0.182404099 93.9281839,0.182404099 C108.741814,0.182404099 120.757425,12.1980153 120.757425,27.0116454 L120.757425,53.8408867 L93.9281839,53.8408867 Z M93.9281839,67.0989425 C108.741814,67.0989425 120.757425,79.1145538 120.757425,93.9281839 C120.757425,108.741814 108.741814,120.757425 93.9281839,120.757425 L27.0116454,120.757425 C12.1980153,120.757425 0.182404099,108.741814 0.182404099,93.9281839 C0.182404099,79.1145538 12.1980153,67.0989425 27.0116454,67.0989425 L93.9281839,67.0989425 Z M201.652388,93.9281839 C201.652388,79.1145538 213.668,67.0989425 228.48163,67.0989425 C243.29526,67.0989425 255.310871,79.1145538 255.310871,93.9281839 C255.310871,108.741814 243.29526,120.757425 228.48163,120.757425 L201.652388,120.757425 L201.652388,93.9281839 Z M188.394332,93.9281839 C188.394332,108.741814 176.378721,120.757425 161.565091,120.757425 C146.751461,120.757425 134.73585,108.741814 134.73585,93.9281839 L134.73585,27.0116454 C134.73585,12.1980153 146.751461,0.182404099 161.565091,0.182404099 C176.378721,0.182404099 188.394332,12.1980153 188.394332,27.0116454 L188.394332,93.9281839 Z M161.565091,201.652388 C176.378721,201.652388 188.394332,213.668 188.394332,228.48163 C188.394332,243.29526 176.378721,255.310871 161.565091,255.310871 C146.751461,255.310871 134.73585,243.29526 134.73585,228.48163 L134.73585,201.652388 L161.565091,201.652388 Z M161.565091,188.394332 C146.751461,188.394332 134.73585,176.378721 134.73585,161.565091 C134.73585,146.751461 146.751461,134.73585 161.565091,134.73585 L228.48163,134.73585 C243.29526,134.73585 255.310871,146.751461 255.310871,161.565091 C255.310871,176.378721 243.29526,188.394332 228.48163,188.394332 L161.565091,188.394332 Z" fill="#E01E5A"></path>
    </g>
</svg>
